<svg width="20" height="20" viewBox="0 0 20 20" fill="none" xmlns="http://www.w3.org/2000/svg">
<path fill-rule="evenodd" clip-rule="evenodd" d="M5.29898 6.86876C4.04374 7.9164 3.16532 9.14749 2.72143 9.85034C2.69198 9.89697 2.67138 9.92964 2.65417 9.95799C2.64281 9.9767 2.63531 9.98964 2.63029 9.99866C2.63029 9.999 2.63029 9.99934 2.63029 9.99967C2.63029 10 2.63029 10.0003 2.63029 10.0007C2.63531 10.0097 2.64281 10.0227 2.65417 10.0414C2.67138 10.0697 2.69198 10.1024 2.72143 10.149C3.16532 10.8519 4.04374 12.0829 5.29898 13.1306C6.55226 14.1766 8.13098 14.9997 10.0004 14.9997C11.8699 14.9997 13.4486 14.1766 14.7019 13.1306C15.9571 12.0829 16.8355 10.8519 17.2794 10.149C17.3089 10.1024 17.3295 10.0697 17.3467 10.0414C17.358 10.0227 17.3655 10.0097 17.3705 10.0007C17.3705 10.0003 17.3705 10 17.3705 9.99967C17.3705 9.99934 17.3705 9.999 17.3705 9.99867C17.3655 9.98965 17.358 9.9767 17.3467 9.95799C17.3295 9.92964 17.3089 9.89697 17.2794 9.85034C16.8355 9.14749 15.9571 7.9164 14.7019 6.86876C13.4486 5.82276 11.8699 4.99967 10.0004 4.99967C8.13097 4.99967 6.55226 5.82276 5.29898 6.86876ZM4.23104 5.5892C5.67154 4.38694 7.61569 3.33301 10.0004 3.33301C12.3851 3.33301 14.3293 4.38694 15.7698 5.5892C17.2083 6.78982 18.1946 8.17825 18.6886 8.96038C18.6951 8.97072 18.7018 8.98127 18.7086 8.99204C18.8067 9.14632 18.9339 9.34664 18.9983 9.62731C19.0502 9.85394 19.0502 10.1454 18.9983 10.372C18.9339 10.6527 18.8067 10.853 18.7086 11.0073C18.7018 11.0181 18.6951 11.0286 18.6886 11.039C18.1946 11.8211 17.2083 13.2095 15.7698 14.4101C14.3293 15.6124 12.3851 16.6663 10.0004 16.6663C7.61569 16.6663 5.67154 15.6124 4.23104 14.4101C2.7925 13.2095 1.80622 11.8211 1.31227 11.039C1.30574 11.0286 1.29904 11.0181 1.2922 11.0073C1.19418 10.853 1.06692 10.6527 1.00258 10.372C0.950637 10.1454 0.950637 9.85394 1.00258 9.62731C1.06692 9.34663 1.19418 9.14632 1.2922 8.99203C1.29904 8.98126 1.30574 8.97072 1.31227 8.96038C1.80622 8.17825 2.7925 6.78982 4.23104 5.5892ZM10.0004 8.33301C9.07994 8.33301 8.33375 9.0792 8.33375 9.99967C8.33375 10.9201 9.07994 11.6663 10.0004 11.6663C10.9209 11.6663 11.6671 10.9201 11.6671 9.99967C11.6671 9.0792 10.9209 8.33301 10.0004 8.33301ZM6.66708 9.99967C6.66708 8.15873 8.15947 6.66634 10.0004 6.66634C11.8414 6.66634 13.3338 8.15873 13.3338 9.99967C13.3338 11.8406 11.8414 13.333 10.0004 13.333C8.15947 13.333 6.66708 11.8406 6.66708 9.99967Z" fill="white"/>
</svg>
