<svg width="32" height="32" viewBox="0 0 32 32" fill="none" xmlns="http://www.w3.org/2000/svg">
<path fill-rule="evenodd" clip-rule="evenodd" d="M2.66675 8.00033C2.66675 7.26395 3.2637 6.66699 4.00008 6.66699H28.0001C28.7365 6.66699 29.3334 7.26395 29.3334 8.00033C29.3334 8.73671 28.7365 9.33366 28.0001 9.33366H4.00008C3.2637 9.33366 2.66675 8.73671 2.66675 8.00033ZM2.66675 16.0003C2.66675 15.2639 3.2637 14.667 4.00008 14.667H28.0001C28.7365 14.667 29.3334 15.2639 29.3334 16.0003C29.3334 16.7367 28.7365 17.3337 28.0001 17.3337H4.00008C3.2637 17.3337 2.66675 16.7367 2.66675 16.0003ZM2.66675 24.0003C2.66675 23.2639 3.2637 22.667 4.00008 22.667H28.0001C28.7365 22.667 29.3334 23.2639 29.3334 24.0003C29.3334 24.7367 28.7365 25.3337 28.0001 25.3337H4.00008C3.2637 25.3337 2.66675 24.7367 2.66675 24.0003Z" fill="white"/>
</svg>
