<svg width="16" height="16" viewBox="0 0 16 16" fill="none" xmlns="http://www.w3.org/2000/svg">
<path fill-rule="evenodd" clip-rule="evenodd" d="M6.33342 2.66683C5.22885 2.66683 4.33342 3.56226 4.33342 4.66683C4.33342 5.7714 5.22885 6.66683 6.33342 6.66683C7.43798 6.66683 8.33342 5.7714 8.33342 4.66683C8.33342 3.56226 7.43798 2.66683 6.33342 2.66683ZM3.00008 4.66683C3.00008 2.82588 4.49247 1.3335 6.33342 1.3335C8.17436 1.3335 9.66675 2.82588 9.66675 4.66683C9.66675 6.50778 8.17436 8.00016 6.33342 8.00016C4.49247 8.00016 3.00008 6.50778 3.00008 4.66683ZM9.71546 1.94386C9.85361 1.60257 10.2423 1.43789 10.5836 1.57604C11.8039 2.07004 12.6667 3.26687 12.6667 4.66683C12.6667 6.06679 11.8039 7.26362 10.5836 7.75762C10.2423 7.89577 9.85361 7.73109 9.71546 7.3898C9.57731 7.04851 9.74198 6.65985 10.0833 6.5217C10.8175 6.22451 11.3334 5.50512 11.3334 4.66683C11.3334 3.82853 10.8175 3.10915 10.0833 2.81196C9.74198 2.67381 9.57731 2.28515 9.71546 1.94386ZM5.30973 9.3335H7.3571C7.95827 9.33349 8.44321 9.33349 8.83788 9.36042C9.24371 9.3881 9.60256 9.44648 9.94236 9.58723C10.7591 9.92554 11.408 10.5745 11.7463 11.3912C11.8871 11.731 11.9455 12.0899 11.9732 12.4957C12.0001 12.8904 12.0001 13.3753 12.0001 13.9765V14.0002C12.0001 14.3684 11.7016 14.6668 11.3334 14.6668C10.9652 14.6668 10.6667 14.3684 10.6667 14.0002C10.6667 13.3698 10.6664 12.9304 10.6429 12.5865C10.6199 12.2485 10.5767 12.0517 10.5145 11.9015C10.3115 11.4114 9.92217 11.0221 9.43212 10.8191C9.28186 10.7568 9.08506 10.7137 8.74712 10.6907C8.40319 10.6672 7.96379 10.6668 7.33342 10.6668H5.33342C4.70304 10.6668 4.26364 10.6672 3.91971 10.6907C3.58177 10.7137 3.38497 10.7568 3.23471 10.8191C2.74466 11.0221 2.35531 11.4114 2.15232 11.9015C2.09008 12.0517 2.04697 12.2485 2.02391 12.5865C2.00044 12.9304 2.00008 13.3698 2.00008 14.0002C2.00008 14.3684 1.7016 14.6668 1.33342 14.6668C0.965225 14.6668 0.666748 14.3684 0.666748 14.0002L0.666748 13.9765C0.666744 13.3753 0.66674 12.8904 0.693668 12.4957C0.721358 12.0899 0.779734 11.731 0.920483 11.3912C1.2588 10.5745 1.90771 9.92554 2.72447 9.58723C3.06427 9.44648 3.42312 9.3881 3.82895 9.36042C4.22362 9.33349 4.70856 9.33349 5.30973 9.3335ZM12.0211 9.918C12.1129 9.56143 12.4764 9.34677 12.8329 9.43855C14.2705 9.80855 15.3334 11.1127 15.3334 12.6668V14.0002C15.3334 14.3684 15.0349 14.6668 14.6667 14.6668C14.2986 14.6668 14.0001 14.3684 14.0001 14.0002V12.6668C14.0001 11.7358 13.3633 10.9519 12.5006 10.7298C12.144 10.638 11.9293 10.2746 12.0211 9.918Z" fill="#6A6A6A"/>
</svg>
